<?xml version="1.0" encoding="utf-8"?>
<!-- Generator: Adobe Illustrator 21.0.0, SVG Export Plug-In . SVG Version: 6.00 Build 0)  -->
<svg version="1.1" id="Capa_1" xmlns="http://www.w3.org/2000/svg" xmlns:xlink="http://www.w3.org/1999/xlink" x="0px" y="0px"
	 viewBox="0 0 512.1 512.1" style="enable-background:new 0 0 512.1 512.1;" xml:space="preserve">
<style type="text/css">
	.st0{fill:none;stroke:#FFA000;stroke-width:15;stroke-miterlimit:10;}
	.st1{fill:none;stroke:#FFA000;stroke-width:16;stroke-miterlimit:10;}
</style>
<path class="st0" d="M77.6,499h357.5c35.2,0,63.7-28.5,63.7-63.7V77.8c0-35.2-28.5-63.7-63.7-63.7H77.6c-35.2,0-63.7,28.5-63.7,63.7
	v357.5C13.9,470.5,42.4,499,77.6,499z"/>
<g>
	<g>
		<g>
			<rect x="117.3" y="117.5" class="st1" width="66.2" height="66.2"/>
			<rect x="223.2" y="117.5" class="st1" width="66.2" height="66.2"/>
			<rect x="329.2" y="117.5" class="st1" width="66.2" height="66.2"/>
		</g>
		<g>
			<rect x="117.3" y="223.4" class="st1" width="66.2" height="66.2"/>
			<rect x="223.2" y="223.4" class="st1" width="66.2" height="66.2"/>
			<rect x="329.2" y="223.4" class="st1" width="66.2" height="66.2"/>
		</g>
		<g>
			<rect x="117.3" y="329.4" class="st1" width="66.2" height="66.2"/>
			<rect x="223.2" y="329.4" class="st1" width="66.2" height="66.2"/>
			<rect x="329.2" y="329.4" class="st1" width="66.2" height="66.2"/>
		</g>
	</g>
</g>
</svg>
