<?xml version="1.0" encoding="utf-8"?>
<!-- Generator: Adobe Illustrator 21.0.0, SVG Export Plug-In . SVG Version: 6.00 Build 0)  -->
<svg version="1.1" id="Capa_1" xmlns="http://www.w3.org/2000/svg" xmlns:xlink="http://www.w3.org/1999/xlink" x="0px" y="0px"
	 viewBox="0 0 512.1 512.1" style="enable-background:new 0 0 512.1 512.1;" xml:space="preserve">
<style type="text/css">
	.st0{fill:none;stroke:#FFA000;stroke-width:15;stroke-miterlimit:10;}
	.st1{fill:#FFA000;}
</style>
<path class="st0" d="M77.6,499h357.5c35.2,0,63.7-28.5,63.7-63.7V77.8c0-35.2-28.5-63.7-63.7-63.7H77.6c-35.2,0-63.7,28.5-63.7,63.7
	v357.5C13.9,470.5,42.4,499,77.6,499z"/>
<g id="Layer_3">
	<g>
		<g>
			<path class="st1" d="M431,221L262,97.2c-3.3-2.4-7.7-2.4-10.9,0L82,221c-4.1,3-5,8.8-2,13s8.8,5,13,2l163.6-119.8L420.1,236
				c1.6,1.2,3.6,1.8,5.5,1.8c2.9,0,5.7-1.3,7.5-3.8C436.1,229.8,435.2,224,431,221z"/>
		</g>
	</g>
	<g>
		<g>
			<path class="st1" d="M386.2,238.1c-5.1,0-9.3,4.1-9.3,9.3v147.5h-74.1v-80.5c0-25.5-20.8-46.3-46.3-46.3s-46.3,20.8-46.3,46.3
				v80.5H136V247.3c0-5.1-4.1-9.3-9.3-9.3c-5.1,0-9.3,4.1-9.3,9.3v156.8c0,5.1,4.1,9.3,9.3,9.3h92.7c4.9,0,8.9-3.8,9.2-8.5
				c0-0.2,0-0.5,0-0.7v-89.8c0-15.3,12.5-27.8,27.8-27.8s27.8,12.5,27.8,27.8v89.8c0,0.3,0,0.5,0,0.7c0.4,4.8,4.4,8.6,9.2,8.6h92.7
				c5.1,0,9.3-4.1,9.3-9.3V247.3C395.5,242.2,391.3,238.1,386.2,238.1z"/>
		</g>
	</g>
</g>
</svg>
