<?xml version="1.0" encoding="utf-8"?>
<!-- Generator: Adobe Illustrator 21.0.0, SVG Export Plug-In . SVG Version: 6.00 Build 0)  -->
<svg version="1.1" id="Capa_1" xmlns="http://www.w3.org/2000/svg" xmlns:xlink="http://www.w3.org/1999/xlink" x="0px" y="0px"
	 viewBox="0 0 512.1 512.1" style="enable-background:new 0 0 512.1 512.1;" xml:space="preserve">
<style type="text/css">
	.st0{fill:none;stroke:#FFA000;stroke-width:15;stroke-miterlimit:10;}
	.st1{fill:none;stroke:#FFA000;stroke-width:16;stroke-miterlimit:10;}
	.st2{fill:none;stroke:#FFA000;stroke-width:16;stroke-linecap:square;stroke-miterlimit:10;}
</style>
<path class="st0" d="M77.6,499h357.5c35.2,0,63.7-28.5,63.7-63.7V77.8c0-35.2-28.5-63.7-63.7-63.7H77.6c-35.2,0-63.7,28.5-63.7,63.7
	v357.5C13.9,470.5,42.4,499,77.6,499z"/>
<g>
	<g>
		<path class="st1" d="M305,369.5c0,25.3-22.2,45.8-49.6,45.8s-49.6-20.5-49.6-45.8"/>
	</g>
	<g>
		<g>
			<circle class="st2" cx="255.4" cy="110" r="15.3"/>
			<path class="st2" d="M255.4,369.5h-145l0,0c76.3,0,7.6-244.2,145-244.2s68.7,244.2,145,244.2l0,0H255.4z"/>
		</g>
	</g>
</g>
</svg>
