<?xml version="1.0" encoding="utf-8"?>
<!-- Generator: Adobe Illustrator 21.0.0, SVG Export Plug-In . SVG Version: 6.00 Build 0)  -->
<svg version="1.1" id="Capa_1" xmlns="http://www.w3.org/2000/svg" xmlns:xlink="http://www.w3.org/1999/xlink" x="0px" y="0px"
	 viewBox="0 0 512.1 512.1" style="enable-background:new 0 0 512.1 512.1;" xml:space="preserve">
<style type="text/css">
	.st0{fill:none;stroke:#FFA000;stroke-width:15;stroke-miterlimit:10;}
	.st1{fill:none;stroke:#FFA000;stroke-width:16;stroke-linecap:square;stroke-miterlimit:10;}
	.st2{fill:none;stroke:#FFA000;stroke-width:16;stroke-linecap:square;stroke-miterlimit:10;stroke-opacity:0;}
</style>
<path class="st0" d="M77.6,499h357.5c35.2,0,63.7-28.5,63.7-63.7V77.8c0-35.2-28.5-63.7-63.7-63.7H77.6c-35.2,0-63.7,28.5-63.7,63.7
	v357.5C13.9,470.5,42.4,499,77.6,499z"/>
<g>
	<g>
		<path class="st1" d="M179.7,330.4c82.7,82.7,147.7,91,169.1,91.3c4.1,0.1,10-2.7,12.9-5.7l48.2-48.1c5.9-5.9,5-14.3-2.1-18.7
			l-60-37.5c-7.1-4.4-17.6-3.3-23.5,2.7l-18.4,18.4c-5.9,5.9-16.7,7.5-23.8,3.1c-17.4-10.8-37.4-26.2-59.5-48.3
			c-22-22-37.5-42.1-48.3-59.4c-4.4-7.1-2.8-17.9,3.1-23.8l18.4-18.4c5.9-5.9,7.1-16.4,2.7-23.5l-37.5-60
			c-4.4-7.1-12.8-8.1-18.7-2.1L94,148.5c-3,3-5.7,8.7-5.7,12.9C88.6,182.7,97,247.7,179.7,330.4z"/>
		<path class="st2" d="M258.4,236.8c8.1,0,14.8,6.7,14.8,14.8"/>
		<path class="st1" d="M258.4,185.1c36.7,0,66.5,29.8,66.5,66.5"/>
		<path class="st1" d="M258.4,140.7c61.2,0,110.9,49.7,110.9,110.9"/>
		<path class="st1" d="M258.4,96.3c85.8,0,155.3,69.5,155.3,155.3"/>
	</g>
</g>
</svg>
