<?xml version="1.0" encoding="utf-8"?>
<!-- Generator: Adobe Illustrator 21.0.0, SVG Export Plug-In . SVG Version: 6.00 Build 0)  -->
<svg version="1.1" id="Capa_1" xmlns="http://www.w3.org/2000/svg" xmlns:xlink="http://www.w3.org/1999/xlink" x="0px" y="0px"
	 viewBox="0 0 512.1 812" style="enable-background:new 0 0 512.1 812;" xml:space="preserve">
<style type="text/css">
	.st0{display:none;fill:none;stroke:#FFA000;stroke-width:15;stroke-miterlimit:10;}
	.st1{display:none;}
	.st2{display:inline;}
	.st3{fill:#FFA000;stroke:#FFA000;stroke-width:6;stroke-miterlimit:10;}
	.st4{display:none;fill:#FFA000;stroke:#FFA000;stroke-width:7;stroke-miterlimit:10;}
	.st5{display:inline;fill:none;stroke:#FFA000;stroke-width:18;stroke-miterlimit:10;}
	.st6{fill:#FFA000;}
	.st7{fill:none;stroke:#FFA000;stroke-width:15;stroke-miterlimit:10;}
	.st8{fill:#DEAD16;stroke:#FFA000;stroke-width:12;stroke-miterlimit:10;}
</style>
<path class="st0" d="M77.6,647h357.5c35.2,0,63.7-28.5,63.7-63.7V225.8c0-35.2-28.5-63.7-63.7-63.7H77.6
	c-35.2,0-63.7,28.5-63.7,63.7v357.5C13.9,618.5,42.4,647,77.6,647z"/>
<g transform="translate(-1 -1)" class="st1">
	<g class="st2">
		<g>
			<path class="st3" d="M412.5,494.2L346.1,450c-8.4-5.6-19.7-3.7-26,4.2L300.8,479c-2.5,3.3-7,4.2-10.6,2.2l-3.7-2
				c-12.2-6.6-27.4-14.9-57.9-45.5s-38.9-45.8-45.5-57.9l-2-3.7c-2-3.6-1.1-8.1,2.2-10.6l24.9-19.3c8-6.2,9.8-17.5,4.2-26L168,249.8
				c-5.7-8.6-17.2-11.2-26-5.8l-27.8,16.7c-8.7,5.1-15.1,13.4-17.9,23.2c-10,36.4-2.5,99.3,90.1,191.9
				c73.7,73.7,128.5,93.5,166.2,93.5c8.7,0,17.3-1.1,25.7-3.4c9.7-2.7,18.1-9.1,23.2-17.9l16.7-27.7
				C423.7,511.4,421.1,500,412.5,494.2z M408.9,514.6l-16.7,27.8c-3.7,6.3-9.7,10.9-16.7,12.9c-33.6,9.2-92.4,1.6-181.3-87.3
				S97.7,320.3,107,286.7c2-7,6.6-13,12.9-16.7l27.8-16.7c3.8-2.3,8.8-1.2,11.3,2.5L183,292l20.2,30.3c2.4,3.7,1.6,8.6-1.8,11.3
				l-24.9,19.3c-7.6,5.8-9.7,16.3-5.1,24.6l2,3.6c7,12.8,15.7,28.8,47.4,60.5c31.7,31.7,47.6,40.4,60.5,47.4l3.6,2
				c8.3,4.7,18.8,2.5,24.6-5.1l19.3-24.9c2.7-3.4,7.6-4.2,11.3-1.8l66.4,44.3C410.1,505.8,411.2,510.8,408.9,514.6z"/>
			<path class="st3" d="M278.9,295.9c51.3,0.1,92.9,41.6,92.9,92.9c0,3,2.4,5.5,5.5,5.5s5.5-2.4,5.5-5.5
				c-0.1-57.3-46.5-103.8-103.9-103.9c-3,0-5.5,2.4-5.5,5.5C273.5,293.4,275.9,295.9,278.9,295.9z"/>
			<path class="st3" d="M278.9,328.7c33.2,0,60.1,26.9,60.1,60.1c0,3,2.4,5.5,5.5,5.5c3,0,5.5-2.4,5.5-5.5c0-39.2-31.8-71-71.1-71.1
				c-3,0-5.5,2.4-5.5,5.5C273.5,326.2,275.9,328.7,278.9,328.7z"/>
			<path class="st3" d="M278.9,361.5c15.1,0,27.3,12.2,27.3,27.3c0,3,2.4,5.5,5.5,5.5s5.5-2.4,5.5-5.5c0-21.1-17.1-38.2-38.3-38.3
				c-3,0-5.5,2.4-5.5,5.5C273.5,359,275.9,361.5,278.9,361.5z"/>
		</g>
	</g>
</g>
<path class="st4" d="M378.2,466.5L378.2,466.5c-9.4,0-14.7-4.9-17.8-16.3c-3.1-11.7-3.2-28.7-3.3-46.6c-0.1-21.8-0.3-46.4-5.7-68.5
	c-0.6-2.6-3.3-4.2-5.9-3.6c-2.6,0.6-4.2,3.3-3.6,5.9c5.1,20.9,5.3,45,5.4,66.2c0.1,18.6,0.2,36.2,3.6,49c1.5,5.6,3.6,10.2,6.4,13.8
	H154.8c2.8-3.6,4.9-8.2,6.4-13.8c3.4-12.9,3.5-30.5,3.6-49c0.2-28.4,0.4-60.6,12-85.2c13.1-27.7,39-41.2,79.3-41.2
	c22.1,0,40.2,4.2,53.8,12.4c11.8,7.1,20.4,17.2,26.4,30.9c1.1,2.5,3.9,3.6,6.4,2.5c2.5-1.1,3.6-3.9,2.5-6.4
	c-6.7-15.4-16.9-27.2-30.3-35.3c-8.5-5.2-18.5-8.9-29.9-11.1c-1.1-14.9-13.7-26.7-28.9-26.7c-15.2,0-27.7,11.8-28.9,26.7
	c-10.9,2.2-20.5,5.6-28.8,10.4c-13.3,7.7-23.5,19-30.5,33.7c-12.5,26.6-12.7,59.9-12.9,89.3c-0.1,18-0.2,34.9-3.3,46.6
	c-3,11.4-8.4,16.3-17.8,16.3h0c-15.7,0-28.5,12.8-28.5,28.5c0,15.7,12.8,28.5,28.5,28.5h30.8c2.7,0,4.9-2.2,4.9-4.9
	s-2.2-4.9-4.9-4.9H134c-10.4,0-18.8-8.4-18.8-18.8c0-10.4,8.4-18.8,18.8-18.8h0h0h244.2h0h0c10.4,0,18.8,8.4,18.8,18.8
	c0,10.4-8.4,18.8-18.8,18.8h-194c-2.7,0-4.9,2.2-4.9,4.9s2.2,4.9,4.9,4.9h20c2.5,26.5,24.8,47.3,51.9,47.3
	c27.1,0,49.5-20.8,51.9-47.3h70.2c15.7,0,28.5-12.8,28.5-28.5C406.7,479.3,393.9,466.5,378.2,466.5z M256.1,253.2
	c9.3,0,17.1,6.7,18.9,15.5c-6-0.7-12.3-1.1-18.9-1.1c-6.6,0-12.9,0.4-18.9,1.1C239,259.8,246.8,253.2,256.1,253.2z M256.1,561.1
	c-21.7,0-39.7-16.5-42.1-37.6h84.3C295.8,544.6,277.8,561.1,256.1,561.1z"/>
<g id="Layer_2" class="st1">
	<path class="st5" d="M347.9,334.8H380c12.4,0,22.4-10,22.4-22.4v-32.1c0-12.4-10-22.4-22.4-22.4h-32.1c-12.4,0-22.4,10-22.4,22.4
		v32.1C325.5,324.8,335.5,334.8,347.9,334.8z"/>
	<path class="st5" d="M132.2,334.8h32.1c12.4,0,22.4-10,22.4-22.4v-32.1c0-12.4-10-22.4-22.4-22.4h-32.1c-12.4,0-22.4,10-22.4,22.4
		v32.1C109.7,324.8,119.8,334.8,132.2,334.8z"/>
	<path class="st5" d="M239.7,334.8h32.1c12.4,0,22.4-10,22.4-22.4v-32.1c0-12.4-10-22.4-22.4-22.4h-32.1c-12.4,0-22.4,10-22.4,22.4
		v32.1C217.3,324.8,227.3,334.8,239.7,334.8z"/>
	<path class="st5" d="M348.3,442h32.1c12.4,0,22.4-10,22.4-22.4v-32.1c0-12.4-10-22.4-22.4-22.4h-32.1c-12.4,0-22.4,10-22.4,22.4
		v32.1C325.9,431.9,335.9,442,348.3,442z"/>
	<path class="st5" d="M132.6,442h32.1c12.4,0,22.4-10,22.4-22.4v-32.1c0-12.4-10-22.4-22.4-22.4h-32.1c-12.4,0-22.4,10-22.4,22.4
		v32.1C110.1,431.9,120.2,442,132.6,442z"/>
	<path class="st5" d="M240.1,442h32.1c12.4,0,22.4-10,22.4-22.4v-32.1c0-12.4-10-22.4-22.4-22.4h-32.1c-12.4,0-22.4,10-22.4,22.4
		v32.1C217.7,431.9,227.7,442,240.1,442z"/>
	<path class="st5" d="M348.2,549.5h32.1c12.4,0,22.4-10,22.4-22.4v-32.1c0-12.4-10-22.4-22.4-22.4h-32.1c-12.4,0-22.4,10-22.4,22.4
		V527C325.8,539.4,335.8,549.5,348.2,549.5z"/>
	<path class="st5" d="M132.5,549.5h32.1c12.4,0,22.4-10,22.4-22.4v-32.1c0-12.4-10-22.4-22.4-22.4h-32.1c-12.4,0-22.4,10-22.4,22.4
		V527C110,539.4,120.1,549.5,132.5,549.5z"/>
	<path class="st5" d="M240,549.5h32.1c12.4,0,22.4-10,22.4-22.4v-32.1c0-12.4-10-22.4-22.4-22.4H240c-12.4,0-22.4,10-22.4,22.4V527
		C217.6,539.4,227.6,549.5,240,549.5z"/>
</g>
<g id="Layer_3" class="st1">
	<g class="st2">
		<g>
			<path class="st6" d="M431,369L262,245.2c-3.3-2.4-7.7-2.4-10.9,0L82,369c-4.1,3-5,8.8-2,13s8.8,5,13,2l163.6-119.8L420.1,384
				c1.6,1.2,3.6,1.8,5.5,1.8c2.9,0,5.7-1.3,7.5-3.8C436.1,377.8,435.2,372,431,369z"/>
		</g>
	</g>
	<g class="st2">
		<g>
			<path class="st6" d="M386.2,386.1c-5.1,0-9.3,4.1-9.3,9.3v147.5h-74.1v-80.5c0-25.5-20.8-46.3-46.3-46.3s-46.3,20.8-46.3,46.3
				v80.5H136V395.3c0-5.1-4.1-9.3-9.3-9.3c-5.1,0-9.3,4.1-9.3,9.3v156.8c0,5.1,4.1,9.3,9.3,9.3h92.7c4.9,0,8.9-3.8,9.2-8.5
				c0-0.2,0-0.5,0-0.7v-89.8c0-15.3,12.5-27.8,27.8-27.8s27.8,12.5,27.8,27.8v89.8c0,0.3,0,0.5,0,0.7c0.4,4.8,4.4,8.6,9.2,8.6h92.7
				c5.1,0,9.3-4.1,9.3-9.3V395.3C395.5,390.2,391.3,386.1,386.2,386.1z"/>
		</g>
	</g>
</g>
<g>
	<path class="st7" d="M330.5,527.1c7.6-5.9,18.1-12.6,25.6-18.1c0.6-0.4,0.9-1.1,0.9-1.9V22.9c0-1.9-2.2-3-3.8-1.8
		C256.1,98.6,154.5,180.7,56.7,258.8c-1.1,0.9-1.2,2.5-0.2,3.5l270.9,264.7C328.3,527.8,329.6,527.8,330.5,527.1z"/>
	<path class="st7" d="M43.2,285L20.5,574.6c-0.1,1.4,1,2.5,2.3,2.5c94.3-0.2,191.3-0.1,285.6-0.2c1.1,0,2-0.7,2.3-1.8l7.2-29.5
		c0.2-0.8,0-1.7-0.6-2.2c-77.8-74.4-191.5-184.7-270-259.9C45.7,282.2,43.4,283.1,43.2,285z"/>
	<path class="st7" d="M171.3,766.6c0.9,1,2.4,1,3.4,0.1c20.9-21,41.8-41.9,62.8-62.8c26.3-26.3,61.9-61.9,88.4-88.6
		c0.8-0.9,0.9-2.2,0.1-3.1l-9.8-11.7c-0.4-0.5-1.1-0.8-1.8-0.8c-86.1,0-187.7,0-273.6,0c-2.5,0-8,0-12.8,0c-2,0-3.1,2.4-1.7,3.9
		L171.3,766.6z"/>
	<path class="st7" d="M354.7,624.2l-9.3-0.8c-0.7-0.1-1.3,0.2-1.8,0.7c-2.1,2-6.5,6.6-7.6,7.7L195.6,774.5c-1.4,1.4-0.5,3.7,1.4,3.9
		c50,5.6,108.4,11.2,157.5,17c1.4,0.2,2.6-0.9,2.6-2.3c-0.4-49-0.3-117.8-0.3-166.7C356.8,625.3,355.9,624.3,354.7,624.2z"/>
	<path class="st7" d="M375.1,619.3c0,48.8,1.2,118.7,1.4,168.6c0,2,2.3,3,3.8,1.8c29.7-24.1,64.2-56.7,93.5-79.9
		c1.1-0.9,1.2-2.5,0.2-3.5c-26.5-25.9-65.8-65.5-92.1-91.5c-0.9-0.9-2.4-0.9-3.3,0l-2.7,2.8C375.3,618.1,375.1,618.7,375.1,619.3z"
		/>
	<path class="st7" d="M398.1,598.9c7.4,0,66.9-0.1,92.1-0.1c1.4,0,2.5,1.2,2.3,2.6l-10.3,81.3c-0.2,1.9-2.6,2.7-3.9,1.4l-81.8-81.2
		c-1-1-0.9-2.7,0.3-3.6l0,0C397.2,599.1,397.6,598.9,398.1,598.9z"/>
	<path class="st7" d="M443.1,538.6c-16,13.8-24,22.9-39.2,36.7c-1.6,1.4-0.6,4,1.6,4h75.9c2.1,0,3.1-2.5,1.6-4
		c-9.7-9.6-22.5-21.9-36.7-36.6C445.4,537.8,444,537.7,443.1,538.6z"/>
	<path class="st7" d="M423.9,529.4c-12.6,11-23.1,21.3-35.3,32c-1.5,1.3-3.8,0.3-3.9-1.7c-0.1-12.7-0.3-29.2-0.3-40.2
		c0-1.5,1.4-2.6,2.8-2.3l35.6,8.2C424.8,525.8,425.3,528.1,423.9,529.4z"/>
	<path class="st7" d="M225.7,775.1"/>
</g>
<path class="st8" d="M443,535.1"/>
<path class="st8" d="M393.3,581.3"/>
<path class="st8" d="M447.3,541.6"/>
</svg>
